<svg width="22" height="22" viewBox="0 0 22 22" fill="none" xmlns="http://www.w3.org/2000/svg">
<path d="M13.7487 11.8672H7.33203C6.9562 11.8672 6.64453 11.5555 6.64453 11.1797C6.64453 10.8039 6.9562 10.4922 7.33203 10.4922H13.7487C14.1245 10.4922 14.4362 10.8039 14.4362 11.1797C14.4362 11.5555 14.1245 11.8672 13.7487 11.8672Z" fill="#00A0D2"/>
<path d="M11.347 15.5391H7.33203C6.9562 15.5391 6.64453 15.2274 6.64453 14.8516C6.64453 14.4757 6.9562 14.1641 7.33203 14.1641H11.347C11.7229 14.1641 12.0345 14.4757 12.0345 14.8516C12.0345 15.2274 11.7229 15.5391 11.347 15.5391Z" fill="#00A0D2"/>
<path d="M12.832 6.1901H9.16536C8.28536 6.1901 6.64453 6.1901 6.64453 3.66927C6.64453 1.14844 8.28536 1.14844 9.16536 1.14844H12.832C13.712 1.14844 15.3529 1.14844 15.3529 3.66927C15.3529 4.54927 15.3529 6.1901 12.832 6.1901ZM9.16536 2.52344C8.25786 2.52344 8.01953 2.52344 8.01953 3.66927C8.01953 4.8151 8.25786 4.8151 9.16536 4.8151H12.832C13.9779 4.8151 13.9779 4.57677 13.9779 3.66927C13.9779 2.52344 13.7395 2.52344 12.832 2.52344H9.16536Z" fill="#00A0D2"/>
<path d="M13.75 20.8575H8.25C3.09833 20.8575 2.0625 18.4925 2.0625 14.67V9.16998C2.0625 4.98998 3.575 3.20248 7.29667 3.00998C7.66333 2.99165 8.0025 3.27581 8.02083 3.66081C8.03917 4.04581 7.74583 4.35748 7.37 4.37581C4.76667 4.52248 3.4375 5.30165 3.4375 9.16998V14.67C3.4375 18.0616 4.10667 19.4825 8.25 19.4825H13.75C17.8933 19.4825 18.5625 18.0616 18.5625 14.67V9.16998C18.5625 5.30165 17.2333 4.52248 14.63 4.37581C14.2542 4.35748 13.9608 4.02748 13.9792 3.65165C13.9975 3.27581 14.3275 2.98248 14.7033 3.00081C18.425 3.20248 19.9375 4.98998 19.9375 9.16081V14.6608C19.9375 18.4925 18.9017 20.8575 13.75 20.8575Z" fill="#00A0D2"/>
</svg>
