<svg width="15" height="16" viewBox="0 0 15 16" fill="none" xmlns="http://www.w3.org/2000/svg">
<circle cx="7.5" cy="8.5" r="6.75" stroke="#00A0D2" stroke-width="1.5"/>
<path d="M8.244 10.324H6.948L6.696 4.432H8.508L8.244 10.324ZM6.66 12.232C6.66 11.896 6.748 11.66 6.924 11.524C7.108 11.38 7.328 11.308 7.584 11.308C7.84 11.308 8.056 11.376 8.232 11.512C8.416 11.648 8.508 11.888 8.508 12.232C8.508 12.56 8.416 12.796 8.232 12.94C8.056 13.084 7.84 13.156 7.584 13.156C7.328 13.156 7.108 13.084 6.924 12.94C6.748 12.796 6.66 12.56 6.66 12.232Z" fill="#00A0D2"/>
</svg>
