<svg width="21" height="20" viewBox="0 0 21 20" fill="none" xmlns="http://www.w3.org/2000/svg">
<circle cx="10.5" cy="10" r="9.5" fill="white" stroke="#D9D9D9"/>
<path d="M14.75 12.5938C14.75 12.7106 14.7223 12.8238 14.6611 12.9258L14.6602 12.9248C14.604 13.0211 14.5266 13.0984 14.4307 13.1543C14.3273 13.2191 14.2119 13.25 14.0918 13.25C13.9153 13.25 13.758 13.1844 13.6309 13.0635L13.624 13.0566L10.001 9.34863L6.37988 13.0566L6.37402 13.0635C6.24688 13.1845 6.08875 13.25 5.91211 13.25C5.79124 13.2499 5.67403 13.2208 5.56934 13.1553L5.57031 13.1543C5.47402 13.0983 5.39615 13.0214 5.33984 12.9248C5.27879 12.8229 5.25 12.7105 5.25 12.5937C5.25002 12.4158 5.3152 12.2567 5.44141 12.1309L5.44043 12.1309L9.52051 7.95508L9.52148 7.95605C9.58252 7.89256 9.65264 7.83956 9.73438 7.80371L9.73926 7.80176C9.8225 7.76724 9.9101 7.75 10 7.75C10.0909 7.75 10.1809 7.76665 10.2656 7.80371C10.3485 7.84005 10.4208 7.89331 10.4824 7.95801L14.5596 12.1309L14.5586 12.1309C14.6848 12.2567 14.75 12.4158 14.75 12.5938Z" fill="#00A0D2" stroke="#00A0D2" stroke-width="0.5"/>
</svg>
