<svg width="22" height="22" viewBox="0 0 22 22" fill="none" xmlns="http://www.w3.org/2000/svg">
<path d="M8.39635 9.96677C8.30469 9.9576 8.19469 9.9576 8.09385 9.96677C5.91219 9.89344 4.17969 8.10594 4.17969 5.90594C4.17969 3.6601 5.99469 1.83594 8.24969 1.83594C10.4955 1.83594 12.3197 3.6601 12.3197 5.90594C12.3105 8.10594 10.578 9.89344 8.39635 9.96677Z" stroke="#00A0D2" stroke-width="1.5" stroke-linecap="round" stroke-linejoin="round"/>
<path d="M15.041 3.66406C16.8194 3.66406 18.2494 5.10323 18.2494 6.8724C18.2494 8.6049 16.8744 10.0166 15.1602 10.0807C15.0869 10.0716 15.0044 10.0716 14.9219 10.0807" stroke="#00A0D2" stroke-width="1.5" stroke-linecap="round" stroke-linejoin="round"/>
<path d="M3.81219 13.3441C1.59385 14.8291 1.59385 17.2491 3.81219 18.7249C6.33302 20.4116 10.4672 20.4116 12.988 18.7249C15.2064 17.2399 15.2064 14.8199 12.988 13.3441C10.4764 11.6666 6.34219 11.6666 3.81219 13.3441Z" stroke="#00A0D2" stroke-width="1.5" stroke-linecap="round" stroke-linejoin="round"/>
<path d="M16.8125 18.3359C17.4725 18.1984 18.0958 17.9326 18.6092 17.5384C20.0392 16.4659 20.0392 14.6968 18.6092 13.6243C18.105 13.2393 17.4908 12.9826 16.84 12.8359" stroke="#00A0D2" stroke-width="1.5" stroke-linecap="round" stroke-linejoin="round"/>
</svg>
