<svg width="22" height="22" viewBox="0 0 22 22" fill="none" xmlns="http://www.w3.org/2000/svg">
<path d="M8.2487 20.1693H13.7487C18.332 20.1693 20.1654 18.3359 20.1654 13.7526V8.2526C20.1654 3.66927 18.332 1.83594 13.7487 1.83594H8.2487C3.66536 1.83594 1.83203 3.66927 1.83203 8.2526V13.7526C1.83203 18.3359 3.66536 20.1693 8.2487 20.1693Z" stroke="#00A0D2" stroke-width="1.5" stroke-linecap="round" stroke-linejoin="round"/>
<path d="M8.2513 9.16667C9.26382 9.16667 10.0846 8.34586 10.0846 7.33333C10.0846 6.32081 9.26382 5.5 8.2513 5.5C7.23878 5.5 6.41797 6.32081 6.41797 7.33333C6.41797 8.34586 7.23878 9.16667 8.2513 9.16667Z" stroke="#00A0D2" stroke-width="1.5" stroke-linecap="round" stroke-linejoin="round"/>
<path d="M2.44922 17.3731L6.96839 14.339C7.69255 13.8531 8.73755 13.9081 9.38838 14.4673L9.69088 14.7331C10.4059 15.3473 11.5609 15.3473 12.2759 14.7331L16.0892 11.4606C16.8042 10.8465 17.9592 10.8465 18.6742 11.4606L20.1684 12.744" stroke="#00A0D2" stroke-width="1.5" stroke-linecap="round" stroke-linejoin="round"/>
</svg>
