<svg width="22" height="22" viewBox="0 0 22 22" fill="none" xmlns="http://www.w3.org/2000/svg">
<path d="M18.3073 9.16406H3.64062V16.4974C3.64062 19.2474 4.55729 20.1641 7.30729 20.1641H14.6406C17.3906 20.1641 18.3073 19.2474 18.3073 16.4974V9.16406Z" stroke="#00A0D2" stroke-width="1.5" stroke-miterlimit="10" stroke-linecap="round" stroke-linejoin="round"/>
<path d="M19.7096 6.41927V7.33594C19.7096 8.34427 19.2238 9.16927 17.8763 9.16927H4.1263C2.7238 9.16927 2.29297 8.34427 2.29297 7.33594V6.41927C2.29297 5.41094 2.7238 4.58594 4.1263 4.58594H17.8763C19.2238 4.58594 19.7096 5.41094 19.7096 6.41927Z" stroke="#00A0D2" stroke-width="1.5" stroke-miterlimit="10" stroke-linecap="round" stroke-linejoin="round"/>
<path d="M10.6699 4.58365H5.60988C5.29822 4.24448 5.30738 3.72198 5.63738 3.39198L6.93905 2.09031C7.27822 1.75115 7.83738 1.75115 8.17655 2.09031L10.6699 4.58365Z" stroke="#00A0D2" stroke-width="1.5" stroke-miterlimit="10" stroke-linecap="round" stroke-linejoin="round"/>
<path d="M16.3803 4.58365H11.3203L13.8136 2.09031C14.1528 1.75115 14.712 1.75115 15.0511 2.09031L16.3528 3.39198C16.6828 3.72198 16.692 4.24448 16.3803 4.58365Z" stroke="#00A0D2" stroke-width="1.5" stroke-miterlimit="10" stroke-linecap="round" stroke-linejoin="round"/>
<path d="M8.19531 9.16406V13.8757C8.19531 14.6091 9.00198 15.0399 9.61615 14.6457L10.4778 14.0774C10.7895 13.8757 11.1836 13.8757 11.4861 14.0774L12.302 14.6274C12.907 15.0307 13.7228 14.5999 13.7228 13.8666V9.16406H8.19531Z" stroke="#00A0D2" stroke-width="1.5" stroke-miterlimit="10" stroke-linecap="round" stroke-linejoin="round"/>
</svg>
