<svg width="22" height="22" viewBox="0 0 22 22" fill="none" xmlns="http://www.w3.org/2000/svg">
<path d="M19 6V16C19 20 18 21 14 21H8C4 21 3 20 3 16V6C3 2 4 1 8 1H14C18 1 19 2 19 6Z" stroke="#00A0D2" stroke-width="1.5" stroke-linecap="round" stroke-linejoin="round"/>
<path d="M13 4.5H9" stroke="#00A0D2" stroke-width="1.5" stroke-linecap="round" stroke-linejoin="round"/>
<path d="M10.9992 18.1C11.8553 18.1 12.5492 17.406 12.5492 16.55C12.5492 15.694 11.8553 15 10.9992 15C10.1432 15 9.44922 15.694 9.44922 16.55C9.44922 17.406 10.1432 18.1 10.9992 18.1Z" stroke="#00A0D2" stroke-width="1.5" stroke-linecap="round" stroke-linejoin="round"/>
</svg>
