<svg width="22" height="22" viewBox="0 0 22 22" fill="none" xmlns="http://www.w3.org/2000/svg">
<path fill-rule="evenodd" clip-rule="evenodd" d="M15.1044 4.67388C12.7274 4.27537 10.2871 4.27537 7.91006 4.67388C7.46273 4.74887 7.10744 5.09255 7.01827 5.53525C6.20694 9.56306 6.16268 13.7078 6.88778 17.752L7.0377 18.5882L10.4024 15.3917C11.0215 14.8035 11.9929 14.8035 12.6121 15.3917L15.9767 18.5882L16.1267 17.752C16.8518 13.7078 16.8075 9.56306 15.9962 5.53525C15.907 5.09255 15.5517 4.74887 15.1044 4.67388ZM7.68272 3.3178C10.2103 2.89407 12.8042 2.89407 15.3317 3.3178C16.3393 3.48672 17.142 4.26022 17.3441 5.26373C18.1896 9.46107 18.2357 13.7802 17.4801 17.9947L17.2771 19.127C17.1066 20.0775 15.9479 20.4574 15.2479 19.7923L11.6651 16.3886C11.5766 16.3046 11.4378 16.3046 11.3494 16.3886L7.76656 19.7923C7.0665 20.4574 5.9078 20.0775 5.73739 19.127L5.53436 17.9947C4.77874 13.7802 4.82487 9.46107 5.67034 5.26373C5.87248 4.26022 6.6751 3.48672 7.68272 3.3178Z" fill="#00A0D2"/>
</svg>
