<svg width="22" height="22" viewBox="0 0 22 22" fill="none" xmlns="http://www.w3.org/2000/svg">
<path d="M11.0013 11.0026C13.5326 11.0026 15.5846 8.95058 15.5846 6.41927C15.5846 3.88797 13.5326 1.83594 11.0013 1.83594C8.47 1.83594 6.41797 3.88797 6.41797 6.41927C6.41797 8.95058 8.47 11.0026 11.0013 11.0026Z" stroke="#00A0D2" stroke-width="1.5" stroke-linecap="round" stroke-linejoin="round"/>
<path d="M3.125 20.1667C3.125 16.6192 6.65416 13.75 10.9992 13.75C11.8792 13.75 12.7317 13.8692 13.5292 14.0892" stroke="#00A0D2" stroke-width="1.5" stroke-linecap="round" stroke-linejoin="round"/>
<path d="M20.1654 16.5026C20.1654 17.1901 19.9729 17.8409 19.6337 18.3909C19.4412 18.7209 19.1937 19.0143 18.9095 19.2526C18.2679 19.8301 17.4245 20.1693 16.4987 20.1693C15.1604 20.1693 13.9962 19.4543 13.3637 18.3909C13.0245 17.8409 12.832 17.1901 12.832 16.5026C12.832 15.3476 13.3637 14.3118 14.207 13.6426C14.8395 13.1384 15.637 12.8359 16.4987 12.8359C18.5245 12.8359 20.1654 14.4768 20.1654 16.5026Z" stroke="#00A0D2" stroke-width="1.5" stroke-miterlimit="10" stroke-linecap="round" stroke-linejoin="round"/>
<path d="M15.0703 16.4999L15.9778 17.4074L17.9303 15.6016" stroke="#00A0D2" stroke-width="1.5" stroke-linecap="round" stroke-linejoin="round"/>
</svg>
