<svg width="22" height="22" viewBox="0 0 22 22" fill="none" xmlns="http://www.w3.org/2000/svg">
<mask id="path-1-inside-1_1449_16647" fill="white">
<path d="M14 1C15.1046 1 16 1.89543 16 3V6H19C20.1046 6 21 6.89543 21 8V14C21 15.1046 20.1046 16 19 16H16V19C16 20.1046 15.1046 21 14 21H8C6.89543 21 6 20.1046 6 19V16H3C1.89543 16 1 15.1046 1 14V8C1 6.89543 1.89543 6 3 6H6V3C6 1.89543 6.89543 1 8 1H14Z"/>
</mask>
<path d="M14 1V-0.5V1ZM16 3H14.5H16ZM16 6H14.5V7.5H16V6ZM19 6V4.5V6ZM21 8H22.5H21ZM19 16V17.5V16ZM16 16V14.5H14.5V16H16ZM16 19H17.5H16ZM14 21V22.5H14L14 21ZM8 21V22.5V21ZM6 19H4.5H6ZM6 16H7.5V14.5H6V16ZM3 16L3 17.5H3V16ZM1 14H-0.5H1ZM3 6V4.5V6ZM6 6V7.5H7.5V6H6ZM6 3L4.5 3V3H6ZM8 1V2.5V1ZM14 1V2.5C14.2761 2.5 14.5 2.72386 14.5 3H16H17.5C17.5 1.067 15.933 -0.5 14 -0.5V1ZM16 3H14.5V6H16H17.5V3H16ZM16 6V7.5H19V6V4.5H16V6ZM19 6V7.5C19.2761 7.5 19.5 7.72386 19.5 8H21H22.5C22.5 6.067 20.933 4.5 19 4.5V6ZM21 8H19.5V14H21H22.5V8H21ZM21 14H19.5C19.5 14.2761 19.2761 14.5 19 14.5V16V17.5C20.933 17.5 22.5 15.933 22.5 14H21ZM19 16V14.5H16V16V17.5H19V16ZM16 16H14.5V19H16H17.5V16H16ZM16 19H14.5C14.5 19.2761 14.2761 19.5 14 19.5L14 21L14 22.5C15.933 22.5 17.5 20.933 17.5 19H16ZM14 21V19.5H8V21V22.5H14V21ZM8 21V19.5C7.72386 19.5 7.5 19.2761 7.5 19H6H4.5C4.5 20.933 6.067 22.5 8 22.5V21ZM6 19H7.5V16H6H4.5V19H6ZM6 16V14.5H3V16V17.5H6V16ZM3 16L3 14.5C2.72386 14.5 2.5 14.2761 2.5 14H1H-0.5C-0.5 15.933 1.067 17.5 3 17.5L3 16ZM1 14H2.5V8H1H-0.5V14H1ZM1 8H2.5C2.5 7.72386 2.72386 7.5 3 7.5V6V4.5C1.067 4.5 -0.5 6.067 -0.5 8H1ZM3 6V7.5H6V6V4.5H3V6ZM6 6H7.5V3H6H4.5V6H6ZM6 3H7.5C7.5 2.72386 7.72386 2.5 8 2.5V1V-0.5C6.067 -0.5 4.5 1.067 4.5 3L6 3ZM8 1V2.5H14V1V-0.5H8V1Z" fill="#00A0D2" mask="url(#path-1-inside-1_1449_16647)"/>
</svg>
